<svg width="847" height="296" viewBox="0 0 847 296" fill="none" xmlns="http://www.w3.org/2000/svg">
<path d="M62.8321 241.372C50.3746 241.372 39.4362 238.612 29.9918 233.105C20.5474 227.598 13.1918 219.736 7.91257 209.506C2.64596 199.29 0 187.174 0 173.184C0 159.195 2.73458 146.446 8.21641 136.23C13.6982 126.013 21.1424 118.189 30.5615 112.77C39.9806 107.352 50.5518 104.643 62.2877 104.643C72.3525 104.643 82.7783 106.828 90.9061 110.639C99.0339 114.45 105.706 119.729 110.922 126.452C115.201 131.984 118.417 137.848 120.088 144.963C120.645 147.343 118.834 149.635 116.378 149.635H95.1473C93.5647 149.635 92.1721 148.647 91.6024 147.179C89.5768 141.925 86.2219 138.149 82.0947 135.073C77.3218 131.528 69.9851 129.482 62.7182 129.482C52.5268 129.482 44.2724 133.254 37.9677 140.787C31.6503 148.32 28.4979 159.03 28.4979 172.919C28.4979 186.807 31.6123 197.542 37.8411 205.139C44.0698 212.735 52.4761 216.533 63.0853 216.533C72.3778 216.533 79.6954 214.102 85.0253 209.253C90.3552 204.392 90.9629 198.391 91.1528 190.111H66.4656C64.364 190.111 62.6675 188.415 62.6675 186.313V171.121C62.6675 169.019 64.364 167.323 66.4656 167.323L116.237 167.292C118.339 167.292 120.035 168.989 120.035 171.09V184.383C120.035 196.056 118.478 206.855 113.528 215.261C108.578 223.668 101.369 230.142 92.672 234.637C83.9745 239.131 74.0237 241.384 62.8195 241.384L62.8321 241.372Z" fill="#0A5039"/>
<path d="M757.877 162.815C753.827 155.416 748.337 149.872 741.409 146.173C734.527 142.473 726.821 140.617 718.267 140.617C708.785 140.617 700.557 142.757 693.559 147.047C686.561 151.338 681.141 157.295 677.265 164.931C673.446 172.567 671.543 181.432 671.543 191.538C671.543 201.645 673.086 210.356 676.951 217.992C680.827 225.569 686.34 231.408 693.512 235.521C700.673 239.635 709.226 241.691 719.172 241.691C731.138 241.691 740.898 238.961 748.465 233.5C754.906 228.843 759.003 223.157 761.266 216.065C761.928 213.997 760.326 211.987 758.191 211.987H739.273C738.008 211.987 736.871 212.744 736.186 213.819C734.979 215.699 733.552 216.94 731.057 218.441C727.877 220.38 724.058 221.349 719.613 221.349C713.196 221.349 707.996 219.233 704.016 215.001C700.685 211.467 698.642 206.81 697.899 201.018C697.644 199.091 699.594 198.063 701.497 198.063H760.697C762.554 198.063 764.051 196.527 764.051 194.647V190.664C764.051 182.153 761.997 170.227 757.9 162.827L757.877 162.815ZM734.701 183.17H701.358C699.373 183.17 697.795 181.42 698.236 179.446C699.176 175.179 701.509 170.617 704.224 167.685C707.753 163.867 712.522 161.953 718.523 161.953C724.476 161.953 729.095 163.773 732.391 167.413C734.991 170.286 736.906 174.931 737.846 179.423C738.264 181.409 736.685 183.17 734.701 183.17Z" fill="#0A5039"/>
<path d="M256.994 238.138V108.464C256.994 106.349 258.701 104.643 260.815 104.643H307.177C317.189 104.643 325.71 106.553 332.74 110.387C339.771 114.221 345.146 119.481 348.852 126.193C352.559 132.906 354.418 137.415 354.418 146.139C354.418 154.864 352.533 162.532 348.763 169.193C344.993 175.842 339.555 181.038 332.422 184.783C325.302 188.528 316.666 190.387 306.541 190.387H285.627V238.15C285.627 240.265 283.907 241.971 281.806 241.971H260.79C258.675 241.971 256.969 240.265 256.969 238.15L256.994 238.138ZM285.652 164.888C285.652 166.302 286.798 167.448 288.212 167.435L302.847 167.346C310.909 167.346 316.131 165.818 320.042 161.716C323.952 157.628 325.812 152.508 325.812 146.025C325.812 139.542 323.977 137.058 320.042 133.059C316.093 129.059 311.865 127.327 303.789 127.327H288.2C286.798 127.327 285.652 128.473 285.652 129.874V164.888Z" fill="#0A5039"/>
<path d="M419.204 291.208C418.478 293.256 416.544 294.624 414.376 294.623L395.476 294.612C392.94 294.612 391.124 292.154 391.856 289.72L405.366 244.461C405.593 243.701 405.58 242.877 405.316 242.129L372.189 145.667C371.344 143.196 373.173 140.623 375.772 140.623H395.93C397.545 140.623 398.983 141.65 399.5 143.183L420.617 204.297H421.715L443.488 143.158C444.03 141.65 445.456 140.636 447.058 140.636H467.191C469.802 140.636 471.632 143.234 470.761 145.718L419.204 291.208Z" fill="#0A5039"/>
<path d="M550.419 198.889V144.043C550.419 142.151 551.953 140.617 553.846 140.617H573.898C575.79 140.617 577.324 142.151 577.324 144.043V238.263C577.324 240.156 575.79 241.69 573.898 241.69H553.023C551.131 241.69 549.597 240.156 549.597 238.263V223.688C549.597 223.139 549.152 222.694 548.603 222.694C548.187 222.694 547.815 222.953 547.671 223.343C545.657 228.761 543.89 233.152 539.074 236.527C534.066 240.036 527.943 241.753 520.729 241.69C511.049 241.753 503.215 238.496 497.229 231.933C491.242 225.369 488.242 216.37 488.242 204.935V144.043C488.242 142.151 489.776 140.617 491.668 140.617H512.705C514.597 140.617 516.131 142.151 516.131 144.043V196.251C516.131 201.968 517.974 210.843 521.011 214.201C524.048 217.558 526.89 219.385 531.934 219.334C536.694 219.397 540.844 217.583 544.538 214.201C548.231 210.818 550.419 205.427 550.419 198.889Z" fill="#0A5039"/>
<path d="M597.879 241.691C595.987 241.691 594.453 240.157 594.453 238.265V144.043C594.453 142.151 595.987 140.617 597.879 140.617H619.457C621.35 140.617 622.884 142.151 622.884 144.043V160.046C622.884 160.377 623.152 160.645 623.482 160.645C623.749 160.645 623.983 160.469 624.061 160.214C625.881 154.278 629.844 148.352 633.953 145.305C638.16 142.184 643 140.617 648.496 140.617H650.986C652.878 140.617 654.412 142.151 654.412 144.043V165.074C654.412 167.388 652.15 169.069 649.861 168.737C649.571 168.695 649.274 168.656 648.972 168.62C646.723 168.355 644.764 168.228 642.894 168.228C636.943 168.228 630.999 170.149 627.082 173.914C623.165 177.68 621.863 182.57 621.863 188.585V238.265C621.863 240.157 620.329 241.691 618.437 241.691H597.879Z" fill="#0A5039"/>
<path d="M173.303 140.669C176.256 139.871 179 142.22 179 145.279V153.8C179 155.934 177.618 157.794 175.695 158.721C164.7 164.022 157.008 176.206 157.008 190.391C157.008 209.444 170.887 224.891 188.008 224.891C205.129 224.891 219.008 209.444 219.008 190.391C219.008 178.461 213.567 167.946 205.296 161.751C203.914 160.716 203 159.137 203 157.41V147.285C203 143.998 206.14 141.614 209.181 142.864C211.277 143.726 213.283 144.705 215.197 145.78C222.842 150.068 228.723 156.055 232.829 163.752C236.947 171.437 239 180.399 239 190.638C239 200.876 236.947 209.73 232.829 217.391C228.711 225.051 222.829 231.025 215.197 235.313C207.553 239.602 198.472 241.746 187.956 241.746C177.503 241.746 168.447 239.602 160.803 235.313C153.158 231.025 147.277 225.051 143.171 217.391C139.053 209.73 137 200.816 137 190.638C137 180.459 139.053 171.449 143.171 163.752C147.289 156.067 153.158 150.08 160.803 145.78C164.613 143.643 168.783 141.89 173.303 140.669ZM281.391 0C285.481 37.3369 268.622 72.3716 241.475 93.7158C225.732 106.721 207.943 106.908 196.91 136.404C195.824 140.2 193.873 145.552 194.369 150.405C198.336 174.923 210.635 174.736 210.299 192.347C210.124 201.493 203.803 215.58 189.039 215.994C176.969 216.333 165.301 202.893 168.151 186.56C170.941 172.807 178.068 175.11 186.56 155.135C187.861 151.526 190.156 148.039 188.109 138.028C183.709 122.036 171.127 121.413 164.863 114.441C158.287 109.23 153.22 102.213 149.876 94.5078C145.284 83.9213 147.45 74.3002 134 57.4365C153.09 56.4409 169.763 65.3396 181.472 79.7764C192.266 94.5583 193.316 108.775 193.563 120.038C193.625 122.828 193.441 127.103 193.439 127.132C196.724 109.397 204.658 90.6659 220.525 73.4287C228.583 65.277 238.934 56.441 254.057 49.6582C232.256 55.697 217.86 68.575 210.794 75.2334C200.567 86.6211 198.709 97.0868 196.787 104.854L195.671 100.125C192.014 80.3009 198.305 67.7041 200.567 62.7881C204.348 54.574 211.662 47.0346 217.303 42.8125C225.913 36.8993 231.434 34.4116 242.9 32.2959C252.693 29.9312 271.722 21.9665 281.391 0ZM183.337 173.616C176.484 181.017 174.179 195.347 182.089 206.126C183.164 207.59 185.19 207.845 186.746 206.908C189.721 204.295 186.932 201.494 186.932 201.494C186.889 201.449 181.105 195.235 180.92 185.315C180.92 177.889 183.337 173.616 183.337 173.616ZM156.685 77.0381C168.337 86.6834 176.767 99.1939 181.472 108.402C186.157 117.574 188.145 124.024 188.161 124.075L189.101 126.821C188.16 109.149 181.473 95.6441 168.338 84.3809C165.133 81.6325 158.17 77.6896 156.685 77.0381Z" fill="#0A5039"/>
<path d="M453.086 278.538V275.058H469.455V278.538H463.378V295H459.176V278.538H453.086ZM476.254 286.354V295H472.105V275.058H476.12V282.7H476.307C476.646 281.817 477.191 281.121 477.94 280.612C478.698 280.104 479.644 279.85 480.777 279.85C482.33 279.85 483.579 280.349 484.525 281.349C485.471 282.348 485.944 283.726 485.944 285.484V295H481.808V286.22C481.808 285.292 481.576 284.574 481.112 284.065C480.648 283.548 479.983 283.289 479.118 283.289C478.279 283.289 477.592 283.561 477.057 284.106C476.521 284.641 476.254 285.39 476.254 286.354ZM496.075 295.294C494.54 295.294 493.22 294.982 492.113 294.358C491.007 293.733 490.155 292.845 489.557 291.694C488.959 290.534 488.66 289.165 488.66 287.585C488.66 286.051 488.955 284.703 489.544 283.544C490.142 282.384 490.98 281.478 492.06 280.827C493.14 280.175 494.411 279.85 495.874 279.85C497.195 279.85 498.386 280.131 499.448 280.693C500.518 281.255 501.366 282.098 501.991 283.222C502.624 284.347 502.941 285.756 502.941 287.452V288.576H492.742C492.787 289.709 493.117 290.597 493.733 291.239C494.349 291.882 495.152 292.203 496.142 292.203C496.829 292.203 497.418 292.056 497.909 291.761C498.408 291.467 498.765 291.038 498.979 290.476L502.807 290.731C502.513 292.105 501.776 293.211 500.599 294.05C499.43 294.88 497.922 295.294 496.075 295.294ZM492.769 286.02H498.966C498.868 285.074 498.564 284.324 498.056 283.771C497.547 283.218 496.833 282.941 495.914 282.941C494.986 282.941 494.25 283.231 493.706 283.811C493.171 284.382 492.858 285.118 492.769 286.02ZM521.17 295.268C519.305 295.268 517.663 294.857 516.244 294.036C514.835 293.207 513.733 292.029 512.939 290.503C512.153 288.968 511.761 287.153 511.761 285.056C511.761 282.897 512.171 281.054 512.992 279.528C513.813 277.994 514.928 276.82 516.338 276.008C517.748 275.197 519.332 274.791 521.089 274.791C522.597 274.791 523.958 275.076 525.171 275.647C526.394 276.218 527.393 277.008 528.169 278.016C528.954 279.024 529.436 280.189 529.615 281.509H525.345C525.069 280.572 524.573 279.841 523.86 279.314C523.146 278.779 522.245 278.511 521.156 278.511C519.63 278.511 518.395 279.078 517.449 280.211C516.503 281.335 516.03 282.937 516.03 285.016C516.03 287.095 516.494 288.705 517.422 289.847C518.359 290.98 519.621 291.547 521.21 291.547C522.602 291.547 523.695 291.186 524.489 290.463C525.292 289.731 525.707 288.745 525.733 287.505H521.464V284.333H529.815V286.849C529.815 288.598 529.445 290.102 528.705 291.36C527.964 292.618 526.942 293.586 525.64 294.264C524.337 294.933 522.847 295.268 521.17 295.268ZM539.639 295.294C538.131 295.294 536.824 294.973 535.718 294.331C534.62 293.679 533.773 292.778 533.175 291.627C532.586 290.467 532.291 289.12 532.291 287.585C532.291 286.042 532.586 284.69 533.175 283.53C533.773 282.37 534.62 281.469 535.718 280.827C536.824 280.175 538.131 279.85 539.639 279.85C541.156 279.85 542.463 280.175 543.561 280.827C544.667 281.469 545.515 282.37 546.103 283.53C546.701 284.69 547 286.042 547 287.585C547 289.12 546.701 290.467 546.103 291.627C545.515 292.778 544.667 293.679 543.561 294.331C542.463 294.973 541.156 295.294 539.639 295.294ZM536.507 287.559C536.507 288.861 536.771 289.936 537.297 290.784C537.823 291.632 538.609 292.056 539.653 292.056C540.688 292.056 541.468 291.632 541.995 290.784C542.521 289.936 542.784 288.861 542.784 287.559C542.784 286.256 542.521 285.185 541.995 284.347C541.468 283.508 540.688 283.088 539.653 283.088C538.609 283.088 537.823 283.508 537.297 284.347C536.771 285.185 536.507 286.256 536.507 287.559ZM556.476 295.294C554.968 295.294 553.661 294.973 552.554 294.331C551.457 293.679 550.609 292.778 550.012 291.627C549.423 290.467 549.128 289.12 549.128 287.585C549.128 286.042 549.423 284.69 550.012 283.53C550.609 282.37 551.457 281.469 552.554 280.827C553.661 280.175 554.968 279.85 556.476 279.85C557.993 279.85 559.3 280.175 560.397 280.827C561.504 281.469 562.351 282.37 562.94 283.53C563.538 284.69 563.837 286.042 563.837 287.585C563.837 289.12 563.538 290.467 562.94 291.627C562.351 292.778 561.504 293.679 560.397 294.331C559.3 294.973 557.993 295.294 556.476 295.294ZM553.344 287.559C553.344 288.861 553.607 289.936 554.134 290.784C554.66 291.632 555.445 292.056 556.489 292.056C557.524 292.056 558.305 291.632 558.831 290.784C559.358 289.936 559.621 288.861 559.621 287.559C559.621 286.256 559.358 285.185 558.831 284.347C558.305 283.508 557.524 283.088 556.489 283.088C555.445 283.088 554.66 283.508 554.134 284.347C553.607 285.185 553.344 286.256 553.344 287.559ZM572.041 295.241C570.899 295.241 569.869 294.946 568.95 294.358C568.031 293.769 567.303 292.903 566.768 291.761C566.233 290.61 565.965 289.205 565.965 287.545C565.965 285.832 566.242 284.405 566.795 283.262C567.348 282.12 568.084 281.268 569.003 280.706C569.922 280.135 570.926 279.85 572.014 279.85C572.853 279.85 573.554 279.992 574.116 280.278C574.678 280.554 575.133 280.902 575.481 281.322C575.829 281.741 576.092 282.156 576.27 282.566H576.391V275.058H580.54V295H576.458V292.604H576.27C576.083 293.015 575.811 293.425 575.454 293.836C575.097 294.237 574.638 294.572 574.076 294.839C573.522 295.107 572.844 295.241 572.041 295.241ZM576.485 287.532C576.485 286.193 576.212 285.127 575.668 284.333C575.124 283.539 574.348 283.142 573.339 283.142C572.313 283.142 571.533 283.548 570.997 284.36C570.471 285.172 570.208 286.229 570.208 287.532C570.208 288.826 570.475 289.887 571.011 290.717C571.546 291.538 572.322 291.949 573.339 291.949C574.339 291.949 575.111 291.543 575.655 290.731C576.208 289.919 576.485 288.852 576.485 287.532ZM588.008 286.354V295H583.859V280.037H587.941V282.7H588.088C588.427 281.826 588.967 281.134 589.708 280.626C590.448 280.108 591.372 279.85 592.478 279.85C594.04 279.85 595.289 280.354 596.226 281.362C597.171 282.361 597.644 283.735 597.644 285.484V295H593.495V286.22C593.495 285.301 593.259 284.583 592.786 284.065C592.322 283.548 591.675 283.289 590.845 283.289C590.007 283.289 589.324 283.561 588.798 284.106C588.271 284.641 588.008 285.39 588.008 286.354ZM607.776 295.294C606.241 295.294 604.921 294.982 603.814 294.358C602.708 293.733 601.856 292.845 601.258 291.694C600.66 290.534 600.361 289.165 600.361 287.585C600.361 286.051 600.656 284.703 601.245 283.544C601.842 282.384 602.681 281.478 603.761 280.827C604.84 280.175 606.112 279.85 607.575 279.85C608.896 279.85 610.087 280.131 611.149 280.693C612.219 281.255 613.067 282.098 613.691 283.222C614.325 284.347 614.642 285.756 614.642 287.452V288.576H604.443C604.488 289.709 604.818 290.597 605.434 291.239C606.049 291.882 606.852 292.203 607.843 292.203C608.53 292.203 609.119 292.056 609.609 291.761C610.109 291.467 610.466 291.038 610.68 290.476L614.508 290.731C614.213 292.105 613.477 293.211 612.3 294.05C611.131 294.88 609.623 295.294 607.776 295.294ZM604.47 286.02H610.667C610.569 285.074 610.265 284.324 609.757 283.771C609.248 283.218 608.534 282.941 607.615 282.941C606.687 282.941 605.951 283.231 605.407 283.811C604.872 284.382 604.559 285.118 604.47 286.02ZM629.792 284.306L626.018 284.534C625.911 284.061 625.643 283.655 625.215 283.316C624.795 282.968 624.224 282.794 623.502 282.794C622.859 282.794 622.32 282.928 621.882 283.196C621.445 283.463 621.226 283.82 621.226 284.266C621.226 284.623 621.369 284.926 621.655 285.176C621.94 285.426 622.427 285.627 623.114 285.779L625.831 286.314C628.704 286.885 630.14 288.232 630.14 290.356C630.14 291.346 629.855 292.212 629.284 292.952C628.712 293.693 627.927 294.268 626.928 294.679C625.929 295.089 624.782 295.294 623.488 295.294C621.508 295.294 619.933 294.884 618.764 294.063C617.595 293.233 616.908 292.105 616.703 290.677L620.771 290.463C621.048 291.694 621.958 292.31 623.502 292.31C624.224 292.31 624.809 292.167 625.255 291.882C625.701 291.596 625.924 291.235 625.924 290.798C625.924 290.057 625.286 289.557 624.01 289.299L621.427 288.763C618.545 288.183 617.104 286.765 617.104 284.507C617.104 283.062 617.68 281.924 618.831 281.094C619.991 280.264 621.525 279.85 623.435 279.85C625.326 279.85 626.816 280.251 627.905 281.054C628.994 281.848 629.623 282.932 629.792 284.306ZM645.183 284.306L641.409 284.534C641.302 284.061 641.034 283.655 640.606 283.316C640.187 282.968 639.616 282.794 638.893 282.794C638.251 282.794 637.711 282.928 637.274 283.196C636.836 283.463 636.618 283.82 636.618 284.266C636.618 284.623 636.761 284.926 637.046 285.176C637.332 285.426 637.818 285.627 638.505 285.779L641.222 286.314C644.095 286.885 645.531 288.232 645.531 290.356C645.531 291.346 645.246 292.212 644.675 292.952C644.104 293.693 643.319 294.268 642.319 294.679C641.32 295.089 640.173 295.294 638.88 295.294C636.899 295.294 635.324 294.884 634.155 294.063C632.986 293.233 632.299 292.105 632.094 290.677L636.163 290.463C636.439 291.694 637.349 292.31 638.893 292.31C639.616 292.31 640.2 292.167 640.646 291.882C641.092 291.596 641.316 291.235 641.316 290.798C641.316 290.057 640.678 289.557 639.402 289.299L636.819 288.763C633.937 288.183 632.496 286.765 632.496 284.507C632.496 283.062 633.071 281.924 634.222 281.094C635.382 280.264 636.917 279.85 638.826 279.85C640.718 279.85 642.208 280.251 643.296 281.054C644.385 281.848 645.014 282.932 645.183 284.306ZM653.414 275.058H658.152L662.689 283.651H662.89L667.441 275.058H672.165L664.884 287.96V295H660.695V287.96L653.414 275.058ZM681.132 295.294C679.624 295.294 678.317 294.973 677.211 294.331C676.113 293.679 675.266 292.778 674.668 291.627C674.079 290.467 673.785 289.12 673.785 287.585C673.785 286.042 674.079 284.69 674.668 283.53C675.266 282.37 676.113 281.469 677.211 280.827C678.317 280.175 679.624 279.85 681.132 279.85C682.649 279.85 683.956 280.175 685.054 280.827C686.16 281.469 687.008 282.37 687.597 283.53C688.194 284.69 688.493 286.042 688.493 287.585C688.493 289.12 688.194 290.467 687.597 291.627C687.008 292.778 686.16 293.679 685.054 294.331C683.956 294.973 682.649 295.294 681.132 295.294ZM678 287.559C678 288.861 678.264 289.936 678.79 290.784C679.316 291.632 680.102 292.056 681.146 292.056C682.181 292.056 682.961 291.632 683.488 290.784C684.014 289.936 684.277 288.861 684.277 287.559C684.277 286.256 684.014 285.185 683.488 284.347C682.961 283.508 682.181 283.088 681.146 283.088C680.102 283.088 679.316 283.508 678.79 284.347C678.264 285.185 678 286.256 678 287.559ZM700.806 288.643V280.037H704.955V295H700.967V292.283H700.806C700.476 293.158 699.919 293.862 699.133 294.398C698.357 294.933 697.407 295.196 696.283 295.187C694.775 295.196 693.552 294.701 692.615 293.702C691.688 292.694 691.224 291.315 691.224 289.566V280.037H695.372V288.843C695.372 289.718 695.609 290.414 696.082 290.931C696.555 291.44 697.184 291.69 697.969 291.681C698.71 291.69 699.365 291.435 699.936 290.918C700.516 290.4 700.806 289.642 700.806 288.643ZM723.652 295.268C721.877 295.268 720.289 294.866 718.888 294.063C717.487 293.26 716.381 292.096 715.569 290.57C714.766 289.044 714.364 287.202 714.364 285.042C714.364 282.865 714.77 281.014 715.582 279.488C716.403 277.962 717.514 276.798 718.915 275.995C720.324 275.192 721.904 274.791 723.652 274.791C725.196 274.791 726.583 275.076 727.815 275.647C729.055 276.218 730.068 277.043 730.853 278.123C731.638 279.203 732.12 280.51 732.298 282.045H728.042C727.882 280.947 727.413 280.086 726.637 279.461C725.861 278.828 724.897 278.511 723.746 278.511C722.211 278.511 720.976 279.082 720.039 280.224C719.102 281.357 718.633 282.964 718.633 285.042C718.633 287.166 719.102 288.781 720.039 289.887C720.985 290.994 722.216 291.547 723.733 291.547C724.848 291.547 725.794 291.253 726.57 290.664C727.355 290.075 727.846 289.249 728.042 288.188H732.298C732.147 289.41 731.709 290.561 730.987 291.641C730.273 292.72 729.296 293.595 728.056 294.264C726.824 294.933 725.357 295.268 723.652 295.268ZM739.525 295.281C738.098 295.281 736.911 294.911 735.965 294.17C735.029 293.421 734.56 292.305 734.56 290.824C734.56 289.709 734.819 288.835 735.336 288.201C735.863 287.559 736.554 287.09 737.411 286.796C738.267 286.492 739.186 286.296 740.168 286.207C741.471 286.082 742.399 285.953 742.952 285.819C743.514 285.676 743.795 285.364 743.795 284.882V284.815C743.795 284.199 743.599 283.722 743.206 283.383C742.813 283.044 742.247 282.874 741.506 282.874C740.766 282.874 740.159 283.035 739.686 283.356C739.222 283.677 738.914 284.088 738.763 284.587L734.988 283.985C735.345 282.682 736.095 281.67 737.237 280.947C738.388 280.215 739.815 279.85 741.52 279.85C742.626 279.85 743.666 280.024 744.638 280.372C745.62 280.72 746.414 281.268 747.02 282.018C747.627 282.758 747.93 283.722 747.93 284.909V295H744.009V292.912H743.889C743.523 293.617 742.979 294.188 742.256 294.625C741.542 295.062 740.632 295.281 739.525 295.281ZM738.508 290.69C738.508 291.261 738.714 291.694 739.124 291.989C739.543 292.274 740.07 292.417 740.703 292.417C741.613 292.417 742.358 292.154 742.938 291.627C743.527 291.101 743.822 290.445 743.822 289.66V288.067C743.661 288.174 743.407 288.272 743.059 288.362C742.72 288.451 742.358 288.527 741.975 288.589C741.591 288.643 741.248 288.692 740.944 288.736C740.213 288.843 739.624 289.053 739.178 289.365C738.731 289.669 738.508 290.11 738.508 290.69ZM755.412 286.354V295H751.263V280.037H755.345V282.7H755.492C755.831 281.826 756.371 281.134 757.112 280.626C757.852 280.108 758.776 279.85 759.882 279.85C761.444 279.85 762.693 280.354 763.63 281.362C764.575 282.361 765.048 283.735 765.048 285.484V295H760.899V286.22C760.899 285.301 760.663 284.583 760.19 284.065C759.726 283.548 759.079 283.289 758.249 283.289C757.411 283.289 756.728 283.561 756.202 284.106C755.675 284.641 755.412 285.39 755.412 286.354ZM774.056 278.538V275.058H790.424V278.538H784.348V295H780.145V278.538H774.056ZM793.074 295V280.037H797.089V282.66H797.25C797.517 281.732 797.972 281.032 798.615 280.559C799.257 280.077 799.998 279.836 800.836 279.836C801.042 279.836 801.265 279.85 801.506 279.876C801.747 279.903 801.956 279.939 802.135 279.983V283.651C801.938 283.588 801.666 283.539 801.318 283.503C800.979 283.459 800.667 283.436 800.381 283.436C799.471 283.436 798.717 283.726 798.12 284.306C797.522 284.877 797.223 285.622 797.223 286.541V295H793.074ZM813.872 288.643V280.037H818.021V295H814.033V292.283H813.872C813.542 293.158 812.984 293.862 812.199 294.398C811.423 294.933 810.473 295.196 809.349 295.187C807.841 295.196 806.618 294.701 805.681 293.702C804.753 292.694 804.289 291.315 804.289 289.566V280.037H808.438V288.843C808.438 289.718 808.675 290.414 809.148 290.931C809.621 291.44 810.25 291.69 811.035 291.681C811.775 291.69 812.431 291.435 813.002 290.918C813.582 290.4 813.872 289.642 813.872 288.643ZM833.761 284.306L829.986 284.534C829.879 284.061 829.612 283.655 829.183 283.316C828.764 282.968 828.193 282.794 827.47 282.794C826.828 282.794 826.288 282.928 825.851 283.196C825.414 283.463 825.195 283.82 825.195 284.266C825.195 284.623 825.338 284.926 825.623 285.176C825.909 285.426 826.395 285.627 827.082 285.779L829.799 286.314C832.672 286.885 834.109 288.232 834.109 290.356C834.109 291.346 833.823 292.212 833.252 292.952C832.681 293.693 831.896 294.268 830.896 294.679C829.897 295.089 828.751 295.294 827.457 295.294C825.476 295.294 823.901 294.884 822.732 294.063C821.563 293.233 820.876 292.105 820.671 290.677L824.74 290.463C825.016 291.694 825.927 292.31 827.47 292.31C828.193 292.31 828.777 292.167 829.223 291.882C829.67 291.596 829.893 291.235 829.893 290.798C829.893 290.057 829.255 289.557 827.979 289.299L825.396 288.763C822.514 288.183 821.073 286.765 821.073 284.507C821.073 283.062 821.648 281.924 822.799 281.094C823.959 280.264 825.494 279.85 827.403 279.85C829.295 279.85 830.785 280.251 831.873 281.054C832.962 281.848 833.591 282.932 833.761 284.306ZM844.682 280.037V283.169H841.844V290.396C841.844 291.369 842.317 291.855 843.263 291.855C843.424 291.855 843.598 291.841 843.785 291.815C843.981 291.788 844.151 291.757 844.294 291.721L844.949 294.826C844.066 295.085 843.209 295.214 842.38 295.214C840.899 295.214 839.748 294.839 838.927 294.09C838.115 293.34 837.709 292.292 837.709 290.945V283.169H835.674V280.037H837.709V276.477H841.844V280.037H844.682Z" fill="#0A5039"/>
</svg>
