<svg width="282" height="282" viewBox="0 0 282 282" fill="none" xmlns="http://www.w3.org/2000/svg">
<path d="M106.302 160.818C109.255 160.02 112 162.368 112 165.428V173.967C112 176.101 110.618 177.96 108.696 178.888C97.7007 184.194 90.0078 196.391 90.0078 210.591C90.0078 229.665 103.887 245.127 121.008 245.127C138.129 245.127 152.008 229.665 152.008 210.591C152.008 198.648 146.566 188.122 138.294 181.92C136.913 180.885 136 179.306 136 177.58V167.436C136 164.148 139.141 161.764 142.182 163.016C144.278 163.879 146.284 164.858 148.197 165.935C155.842 170.227 161.723 176.22 165.829 183.925C169.947 191.618 172 200.589 172 210.838C172 221.087 169.947 229.95 165.829 237.619C161.711 245.288 155.829 251.269 148.197 255.562C140.553 259.854 131.472 262 120.956 262C110.503 262 101.447 259.854 93.8027 255.562C86.1581 251.269 80.2766 245.288 76.1709 237.619C72.0527 229.95 70 221.027 70 210.838C70.0001 200.649 72.0527 191.63 76.1709 183.925C80.2891 176.232 86.1582 170.239 93.8027 165.935C97.6123 163.795 101.782 162.041 106.302 160.818ZM214.391 20C218.481 57.3759 201.622 92.4469 174.475 113.813C158.731 126.833 140.943 127.02 129.91 156.547C128.825 160.347 126.873 165.704 127.369 170.562C131.336 195.106 143.635 194.919 143.299 212.548C143.124 221.703 136.803 235.805 122.039 236.22C109.969 236.559 98.3009 223.105 101.151 206.755C103.941 192.988 111.068 195.293 119.56 175.297C120.861 171.684 123.156 168.193 121.109 158.173C116.709 142.164 104.127 141.54 97.8633 134.561C91.287 129.343 86.2203 122.32 82.876 114.607C78.2838 104.01 80.4496 94.3784 67 77.4971C86.0901 76.5004 102.763 85.4083 114.472 99.8604C125.266 114.658 126.316 128.889 126.563 140.164C126.625 142.952 126.441 147.219 126.439 147.265C129.724 129.511 137.658 110.761 153.525 93.5059C161.583 85.3455 171.934 76.4999 187.057 69.71C165.256 75.7551 150.86 88.6472 143.794 95.3125C133.567 106.712 131.709 117.188 129.787 124.964L128.671 120.229C125.014 100.385 131.305 87.7747 133.567 82.8535C137.348 74.6309 144.662 67.0839 150.303 62.8574C158.913 56.938 164.434 54.448 175.9 52.3301C185.693 49.9629 204.722 41.9895 214.391 20ZM116.337 193.798C109.484 201.206 107.179 215.552 115.089 226.342C116.164 227.808 118.19 228.063 119.746 227.125C122.721 224.509 119.932 221.705 119.932 221.705C119.894 221.665 114.105 215.443 113.92 205.509C113.92 198.075 116.337 193.798 116.337 193.798ZM89.6846 97.1191C101.337 106.774 109.767 119.298 114.472 128.516C119.159 137.7 121.147 144.158 121.161 144.205L122.101 146.953C121.16 129.262 114.472 115.745 101.338 104.47C98.1329 101.718 91.1695 97.7713 89.6846 97.1191Z" fill="#FFFDF9"/>
</svg>
