<svg width="765" height="295" viewBox="0 0 765 295" fill="none" xmlns="http://www.w3.org/2000/svg">
<path d="M62.8321 241.372C50.3746 241.372 39.4362 238.612 29.9918 233.105C20.5474 227.598 13.1918 219.736 7.91257 209.506C2.64596 199.29 0 187.174 0 173.184C0 159.195 2.73458 146.446 8.21641 136.23C13.6982 126.013 21.1424 118.189 30.5615 112.77C39.9806 107.352 50.5518 104.643 62.2877 104.643C72.3525 104.643 82.7783 106.828 90.9061 110.639C99.0339 114.45 105.706 119.729 110.922 126.452C115.201 131.984 118.417 137.848 120.088 144.963C120.645 147.343 118.834 149.635 116.378 149.635H95.1473C93.5647 149.635 92.1721 148.647 91.6024 147.179C89.5768 141.925 86.2219 138.149 82.0947 135.073C77.3218 131.528 69.9851 129.482 62.7182 129.482C52.5268 129.482 44.2724 133.254 37.9677 140.787C31.6503 148.32 28.4979 159.03 28.4979 172.919C28.4979 186.807 31.6123 197.542 37.8411 205.139C44.0698 212.735 52.4761 216.533 63.0853 216.533C72.3778 216.533 79.6954 214.102 85.0253 209.253C90.3552 204.392 90.9629 198.391 91.1528 190.111H66.4656C64.364 190.111 62.6675 188.415 62.6675 186.313V171.121C62.6675 169.019 64.364 167.323 66.4656 167.323L116.237 167.292C118.339 167.292 120.035 168.989 120.035 171.09V184.383C120.035 196.056 118.478 206.855 113.528 215.261C108.578 223.668 101.369 230.142 92.672 234.637C83.9745 239.131 74.0237 241.384 62.8195 241.384L62.8321 241.372Z" fill="#FFFDF9"/>
<path d="M757.877 162.815C753.827 155.416 748.337 149.872 741.409 146.173C734.527 142.473 726.821 140.617 718.267 140.617C708.785 140.617 700.557 142.757 693.559 147.047C686.561 151.338 681.141 157.295 677.265 164.931C673.446 172.567 671.543 181.432 671.543 191.538C671.543 201.645 673.086 210.356 676.951 217.992C680.827 225.569 686.34 231.408 693.512 235.521C700.673 239.635 709.226 241.691 719.172 241.691C731.138 241.691 740.898 238.961 748.465 233.5C754.906 228.843 759.003 223.157 761.266 216.065C761.928 213.997 760.326 211.987 758.191 211.987H739.273C738.008 211.987 736.871 212.744 736.186 213.819C734.979 215.699 733.552 216.94 731.057 218.441C727.877 220.38 724.058 221.349 719.613 221.349C713.196 221.349 707.996 219.233 704.016 215.001C700.685 211.467 698.642 206.81 697.899 201.018C697.644 199.091 699.594 198.063 701.497 198.063H760.697C762.554 198.063 764.051 196.527 764.051 194.647V190.664C764.051 182.153 761.997 170.227 757.9 162.827L757.877 162.815ZM734.701 183.17H701.358C699.373 183.17 697.795 181.42 698.236 179.446C699.176 175.179 701.509 170.617 704.224 167.685C707.753 163.867 712.522 161.953 718.523 161.953C724.476 161.953 729.095 163.773 732.391 167.413C734.991 170.286 736.906 174.931 737.846 179.423C738.264 181.409 736.685 183.17 734.701 183.17Z" fill="#FFFDF9"/>
<path d="M256.994 238.138V108.464C256.994 106.349 258.701 104.643 260.815 104.643H307.177C317.189 104.643 325.71 106.553 332.74 110.387C339.771 114.221 345.146 119.481 348.852 126.193C352.559 132.906 354.418 137.415 354.418 146.139C354.418 154.864 352.533 162.532 348.763 169.193C344.993 175.842 339.555 181.038 332.422 184.783C325.302 188.528 316.666 190.387 306.541 190.387H285.627V238.15C285.627 240.265 283.907 241.971 281.806 241.971H260.79C258.675 241.971 256.969 240.265 256.969 238.15L256.994 238.138ZM285.652 164.888C285.652 166.302 286.798 167.448 288.212 167.435L302.847 167.346C310.909 167.346 316.131 165.818 320.042 161.716C323.952 157.628 325.812 152.508 325.812 146.025C325.812 139.542 323.977 137.058 320.042 133.059C316.093 129.059 311.865 127.327 303.789 127.327H288.2C286.798 127.327 285.652 128.473 285.652 129.874V164.888Z" fill="#FFFDF9"/>
<path d="M419.204 291.208C418.478 293.256 416.544 294.624 414.376 294.623L395.476 294.612C392.94 294.612 391.124 292.154 391.856 289.72L405.366 244.461C405.593 243.701 405.58 242.877 405.316 242.129L372.189 145.667C371.344 143.196 373.173 140.623 375.772 140.623H395.93C397.545 140.623 398.983 141.65 399.5 143.183L420.617 204.297H421.715L443.488 143.158C444.03 141.65 445.456 140.636 447.058 140.636H467.191C469.802 140.636 471.632 143.234 470.761 145.718L419.204 291.208Z" fill="#FFFDF9"/>
<path d="M550.419 198.889V144.043C550.419 142.151 551.953 140.617 553.846 140.617H573.898C575.79 140.617 577.324 142.151 577.324 144.043V238.263C577.324 240.156 575.79 241.69 573.898 241.69H553.023C551.131 241.69 549.597 240.156 549.597 238.263V223.688C549.597 223.139 549.152 222.694 548.603 222.694C548.187 222.694 547.815 222.953 547.671 223.343C545.657 228.761 543.89 233.152 539.074 236.527C534.066 240.036 527.943 241.753 520.729 241.69C511.049 241.753 503.215 238.496 497.229 231.933C491.242 225.369 488.242 216.37 488.242 204.935V144.043C488.242 142.151 489.776 140.617 491.668 140.617H512.705C514.597 140.617 516.131 142.151 516.131 144.043V196.251C516.131 201.968 517.974 210.843 521.011 214.201C524.048 217.558 526.89 219.385 531.934 219.334C536.694 219.397 540.844 217.583 544.538 214.201C548.231 210.818 550.419 205.427 550.419 198.889Z" fill="#FFFDF9"/>
<path d="M597.879 241.691C595.987 241.691 594.453 240.157 594.453 238.265V144.043C594.453 142.151 595.987 140.617 597.879 140.617H619.457C621.35 140.617 622.884 142.151 622.884 144.043V160.046C622.884 160.377 623.152 160.645 623.482 160.645C623.749 160.645 623.983 160.469 624.061 160.214C625.881 154.278 629.844 148.352 633.953 145.305C638.16 142.184 643 140.617 648.496 140.617H650.986C652.878 140.617 654.412 142.151 654.412 144.043V165.074C654.412 167.388 652.15 169.069 649.861 168.737C649.571 168.695 649.274 168.656 648.972 168.62C646.723 168.355 644.764 168.228 642.894 168.228C636.943 168.228 630.999 170.149 627.082 173.914C623.165 177.68 621.863 182.57 621.863 188.585V238.265C621.863 240.157 620.329 241.691 618.437 241.691H597.879Z" fill="#FFFDF9"/>
<path d="M173.303 140.669C176.256 139.871 179 142.22 179 145.279V153.8C179 155.934 177.618 157.794 175.695 158.721C164.7 164.022 157.008 176.206 157.008 190.391C157.008 209.444 170.887 224.891 188.008 224.891C205.129 224.891 219.008 209.444 219.008 190.391C219.008 178.461 213.567 167.946 205.296 161.751C203.914 160.716 203 159.137 203 157.41V147.285C203 143.998 206.14 141.614 209.181 142.864C211.277 143.726 213.283 144.705 215.197 145.78C222.842 150.068 228.723 156.055 232.829 163.752C236.947 171.437 239 180.399 239 190.638C239 200.876 236.947 209.73 232.829 217.391C228.711 225.051 222.829 231.025 215.197 235.313C207.553 239.602 198.472 241.746 187.956 241.746C177.503 241.746 168.447 239.602 160.803 235.313C153.158 231.025 147.277 225.051 143.171 217.391C139.053 209.73 137 200.816 137 190.638C137 180.459 139.053 171.449 143.171 163.752C147.289 156.067 153.158 150.08 160.803 145.78C164.613 143.643 168.783 141.89 173.303 140.669ZM281.391 0C285.481 37.3369 268.622 72.3716 241.475 93.7158C225.732 106.721 207.943 106.908 196.91 136.404C195.824 140.2 193.873 145.552 194.369 150.405C198.336 174.923 210.635 174.736 210.299 192.347C210.124 201.493 203.803 215.58 189.039 215.994C176.969 216.333 165.301 202.893 168.151 186.56C170.941 172.807 178.068 175.11 186.56 155.135C187.861 151.526 190.156 148.039 188.109 138.028C183.709 122.036 171.127 121.413 164.863 114.441C158.287 109.23 153.22 102.213 149.876 94.5078C145.284 83.9213 147.45 74.3002 134 57.4365C153.09 56.4409 169.763 65.3396 181.472 79.7764C192.266 94.5583 193.316 108.775 193.563 120.038C193.625 122.828 193.441 127.103 193.439 127.132C196.724 109.397 204.658 90.6659 220.525 73.4287C228.583 65.277 238.934 56.441 254.057 49.6582C232.256 55.697 217.86 68.575 210.794 75.2334C200.567 86.6211 198.709 97.0868 196.787 104.854L195.671 100.125C192.014 80.3009 198.305 67.7041 200.567 62.7881C204.348 54.574 211.662 47.0346 217.303 42.8125C225.913 36.8993 231.434 34.4116 242.9 32.2959C252.693 29.9312 271.722 21.9665 281.391 0ZM183.337 173.616C176.484 181.017 174.179 195.347 182.089 206.126C183.164 207.59 185.19 207.845 186.746 206.908C189.721 204.295 186.932 201.494 186.932 201.494C186.889 201.449 181.105 195.235 180.92 185.315C180.92 177.889 183.337 173.616 183.337 173.616ZM156.685 77.0381C168.337 86.6834 176.767 99.1939 181.472 108.402C186.157 117.574 188.145 124.024 188.161 124.075L189.101 126.821C188.16 109.149 181.473 95.6441 168.338 84.3809C165.133 81.6325 158.17 77.6896 156.685 77.0381Z" fill="#FFFDF9"/>
</svg>
